REM DIRINDEX 1\6,1\2\7,1\2\8,1\2\9,1\3\10,1\3\11,1\4\12,1\4\13,1\4\14,1\5\15,1\5\16,1\5\17
REM DIRNAME cjc041,folder01,folder02,folder03,folder04,folder05,folder06,folder07,folder08,folder09,folder10,folder11,folder12,folder13,folder14,folder15,folder16
TITLE ""
FILE "3Q_t2_0787-0802.mp3" MP3
  TRACK 01 AUDIO
    TITLE "7:cjc041_5779"
    INDEX 01 00:00:00
  TRACK 02 AUDIO
    TITLE "0:"
    INDEX 01 00:01:01
  TRACK 03 AUDIO
    TITLE "8:cjc041_5780"
    INDEX 01 00:01:62
  TRACK 04 AUDIO
    TITLE "0:"
    INDEX 01 00:02:67
  TRACK 05 AUDIO
    TITLE "9:cjc041_5781"
    INDEX 01 00:03:51
  TRACK 06 AUDIO
    TITLE "0:"
    INDEX 01 00:04:64
  TRACK 07 AUDIO
    TITLE "7:cjc041_5782"
    INDEX 01 00:06:45
  TRACK 08 AUDIO
    TITLE "0:"
    INDEX 01 00:07:64
  TRACK 09 AUDIO
    TITLE "8:cjc041_5783"
    INDEX 01 00:08:46
  TRACK 10 AUDIO
    TITLE "0:"
    INDEX 01 00:09:61
  TRACK 11 AUDIO
    TITLE "9:cjc041_5784"
    INDEX 01 00:10:39
  TRACK 12 AUDIO
    TITLE "0:"
    INDEX 01 00:11:58
  TRACK 13 AUDIO
    TITLE "7:cjc041_5785"
    INDEX 01 00:13:37
  TRACK 14 AUDIO
    TITLE "0:"
    INDEX 01 00:14:43
  TRACK 15 AUDIO
    TITLE "8:cjc041_5786"
    INDEX 01 00:15:23
  TRACK 16 AUDIO
    TITLE "0:"
    INDEX 01 00:16:22
  TRACK 17 AUDIO
    TITLE "9:cjc041_5787"
    INDEX 01 00:17:04
  TRACK 18 AUDIO
    TITLE "0:"
    INDEX 01 00:18:13
  TRACK 19 AUDIO
    TITLE "7:cjc041_5788"
    INDEX 01 00:19:63
  TRACK 20 AUDIO
    TITLE "0:"
    INDEX 01 00:21:23
  TRACK 21 AUDIO
    TITLE "8:cjc041_5789"
    INDEX 01 00:21:70
  TRACK 22 AUDIO
    TITLE "0:"
    INDEX 01 00:24:10
  TRACK 23 AUDIO
    TITLE "9:cjc041_5790"
    INDEX 01 00:24:61
  TRACK 24 AUDIO
    TITLE "0:"
    INDEX 01 00:26:17
  TRACK 25 AUDIO
    TITLE "7:cjc041_5791"
    INDEX 01 00:28:00
  TRACK 26 AUDIO
    TITLE "0:"
    INDEX 01 00:29:01
  TRACK 27 AUDIO
    TITLE "8:cjc041_5792"
    INDEX 01 00:29:58
  TRACK 28 AUDIO
    TITLE "0:"
    INDEX 01 00:30:61
  TRACK 29 AUDIO
    TITLE "9:cjc041_5793"
    INDEX 01 00:31:43
  TRACK 30 AUDIO
    TITLE "0:"
    INDEX 01 00:32:50
  TRACK 31 AUDIO
    TITLE "7:cjc041_5794"
    INDEX 01 00:34:30
  TRACK 32 AUDIO
    TITLE "0:"
    INDEX 01 00:35:55
  TRACK 33 AUDIO
    TITLE "8:cjc041_5795"
    INDEX 01 00:36:35
  TRACK 34 AUDIO
    TITLE "0:"
    INDEX 01 00:37:40
  TRACK 35 AUDIO
    TITLE "9:cjc041_5796"
    INDEX 01 00:38:20
  TRACK 36 AUDIO
    TITLE "0:"
    INDEX 01 00:39:49
  TRACK 37 AUDIO
    TITLE "7:cjc041_5797"
    INDEX 01 00:41:24
  TRACK 38 AUDIO
    TITLE "0:"
    INDEX 01 00:42:43
  TRACK 39 AUDIO
    TITLE "8:cjc041_5798"
    INDEX 01 00:43:25
  TRACK 40 AUDIO
    TITLE "0:"
    INDEX 01 00:45:49
  TRACK 41 AUDIO
    TITLE "9:cjc041_5799"
    INDEX 01 00:46:23
  TRACK 42 AUDIO
    TITLE "0:"
    INDEX 01 00:47:46
  TRACK 43 AUDIO
    TITLE "7:cjc041_5800"
    INDEX 01 00:49:29
  TRACK 44 AUDIO
    TITLE "0:"
    INDEX 01 00:50:50
  TRACK 45 AUDIO
    TITLE "8:cjc041_5801"
    INDEX 01 00:51:26
  TRACK 46 AUDIO
    TITLE "0:"
    INDEX 01 00:52:49
  TRACK 47 AUDIO
    TITLE "9:cjc041_5802"
    INDEX 01 00:53:29
  TRACK 48 AUDIO
    TITLE "0:"
    INDEX 01 00:54:50
  TRACK 49 AUDIO
    TITLE "7:cjc041_5803"
    INDEX 01 00:56:27
  TRACK 50 AUDIO
    TITLE "0:"
    INDEX 01 00:57:41
  TRACK 51 AUDIO
    TITLE "8:cjc041_5804"
    INDEX 01 00:58:18
  TRACK 52 AUDIO
    TITLE "0:"
    INDEX 01 00:59:34
  TRACK 53 AUDIO
    TITLE "9:cjc041_5805"
    INDEX 01 01:00:17
  TRACK 54 AUDIO
    TITLE "0:"
    INDEX 01 01:01:33
  TRACK 55 AUDIO
    TITLE "7:cjc041_5806"
    INDEX 01 01:03:10
  TRACK 56 AUDIO
    TITLE "0:"
    INDEX 01 01:04:37
  TRACK 57 AUDIO
    TITLE "8:cjc041_5807"
    INDEX 01 01:05:15
  TRACK 58 AUDIO
    TITLE "0:"
    INDEX 01 01:06:32
  TRACK 59 AUDIO
    TITLE "9:cjc041_5808"
    INDEX 01 01:07:06
  TRACK 60 AUDIO
    TITLE "0:"
    INDEX 01 01:08:35
  TRACK 61 AUDIO
    TITLE "7:cjc041_5809"
    INDEX 01 01:10:16
  TRACK 62 AUDIO
    TITLE "0:"
    INDEX 01 01:11:35
  TRACK 63 AUDIO
    TITLE "8:cjc041_5810"
    INDEX 01 01:12:19
  TRACK 64 AUDIO
    TITLE "0:"
    INDEX 01 01:13:22
  TRACK 65 AUDIO
    TITLE "9:cjc041_5811"
    INDEX 01 01:14:02
  TRACK 66 AUDIO
    TITLE "0:"
    INDEX 01 01:15:25
  TRACK 67 AUDIO
    TITLE "7:cjc041_5812"
    INDEX 01 01:17:08
  TRACK 68 AUDIO
    TITLE "0:"
    INDEX 01 01:18:49
  TRACK 69 AUDIO
    TITLE "8:cjc041_5813"
    INDEX 01 01:19:23
  TRACK 70 AUDIO
    TITLE "0:"
    INDEX 01 01:21:65
  TRACK 71 AUDIO
    TITLE "9:cjc041_5814"
    INDEX 01 01:22:41
  TRACK 72 AUDIO
    TITLE "0:"
    INDEX 01 01:24:04
  TRACK 73 AUDIO
    TITLE "7:cjc041_5815"
    INDEX 01 01:25:62
  TRACK 74 AUDIO
    TITLE "0:"
    INDEX 01 01:27:04
  TRACK 75 AUDIO
    TITLE "8:cjc041_5816"
    INDEX 01 01:27:61
  TRACK 76 AUDIO
    TITLE "0:"
    INDEX 01 01:28:65
  TRACK 77 AUDIO
    TITLE "9:cjc041_5817"
    INDEX 01 01:29:45
  TRACK 78 AUDIO
    TITLE "0:"
    INDEX 01 01:30:64
  TRACK 79 AUDIO
    TITLE "7:cjc041_5818"
    INDEX 01 01:32:41
  TRACK 80 AUDIO
    TITLE "0:"
    INDEX 01 01:33:70
  TRACK 81 AUDIO
    TITLE "8:cjc041_5819"
    INDEX 01 01:34:50
  TRACK 82 AUDIO
    TITLE "0:"
    INDEX 01 01:35:53
  TRACK 83 AUDIO
    TITLE "9:cjc041_5820"
    INDEX 01 01:36:25
  TRACK 84 AUDIO
    TITLE "0:"
    INDEX 01 01:37:52
  TRACK 85 AUDIO
    TITLE "7:cjc041_5821"
    INDEX 01 01:39:29
  TRACK 86 AUDIO
    TITLE "0:"
    INDEX 01 01:40:58
  TRACK 87 AUDIO
    TITLE "8:cjc041_5822"
    INDEX 01 01:41:36
  TRACK 88 AUDIO
    TITLE "0:"
    INDEX 01 01:42:55
  TRACK 89 AUDIO
    TITLE "9:cjc041_5823"
    INDEX 01 01:43:37
  TRACK 90 AUDIO
    TITLE "0:"
    INDEX 01 01:44:70
  TRACK 91 AUDIO
    TITLE "7:cjc041_5824"
    INDEX 01 01:46:45
  TRACK 92 AUDIO
    TITLE "0:"
    INDEX 01 01:47:52
  TRACK 93 AUDIO
    TITLE "8:cjc041_5825"
    INDEX 01 01:48:30
  TRACK 94 AUDIO
    TITLE "0:"
    INDEX 01 01:49:37
  TRACK 95 AUDIO
    TITLE "9:cjc041_5826"
    INDEX 01 01:50:15
  TRACK 96 AUDIO
    TITLE "0:"
    INDEX 01 01:51:19
